<svg width="33" height="33" viewBox="0 0 33 33" fill="none" xmlns="http://www.w3.org/2000/svg">
<rect x="0.599121" y="0.906738" width="32" height="32" rx="16" fill="#FEF3C7"/>
<path d="M12.5991 14.24C12.5991 13.1791 13.0205 12.1617 13.7707 11.4116C14.5208 10.6614 15.5383 10.24 16.5991 10.24C17.66 10.24 18.6774 10.6614 19.4275 11.4116C20.1777 12.1617 20.5991 13.1791 20.5991 14.24C20.5991 18.9067 22.5991 20.24 22.5991 20.24H10.5991C10.5991 20.24 12.5991 18.9067 12.5991 14.24Z" stroke="#D97706" stroke-width="1.33333" stroke-linecap="round" stroke-linejoin="round"/>
<path d="M15.4658 22.9067C15.5774 23.1097 15.7415 23.279 15.9408 23.3969C16.1402 23.5148 16.3675 23.577 16.5992 23.577C16.8308 23.577 17.0581 23.5148 17.2575 23.3969C17.4569 23.279 17.6209 23.1097 17.7325 22.9067" stroke="#D97706" stroke-width="1.33333" stroke-linecap="round" stroke-linejoin="round"/>
</svg>
