<svg width="15" height="15" viewBox="0 0 15 15" fill="none" xmlns="http://www.w3.org/2000/svg">
<path d="M11.8665 3.1295H10.7055V2.549C10.7055 2.39504 10.6443 2.24739 10.5355 2.13853C10.4266 2.02966 10.2789 1.96851 10.125 1.96851C9.97102 1.96851 9.82337 2.02966 9.71451 2.13853C9.60565 2.24739 9.54449 2.39504 9.54449 2.549V3.1295H6.06151V2.549C6.06151 2.39504 6.00035 2.24739 5.89149 2.13853C5.78263 2.02966 5.63498 1.96851 5.48102 1.96851C5.32706 1.96851 5.17941 2.02966 5.07055 2.13853C4.96168 2.24739 4.90052 2.39504 4.90052 2.549V3.1295H3.73953C3.27766 3.1295 2.83471 3.31297 2.50812 3.63957C2.18152 3.96616 1.99805 4.40911 1.99805 4.87098V11.8369C1.99805 12.2988 2.18152 12.7418 2.50812 13.0683C2.83471 13.3949 3.27766 13.5784 3.73953 13.5784H11.8665C12.3283 13.5784 12.7713 13.3949 13.0979 13.0683C13.4245 12.7418 13.608 12.2988 13.608 11.8369V4.87098C13.608 4.40911 13.4245 3.96616 13.0979 3.63957C12.7713 3.31297 12.3283 3.1295 11.8665 3.1295ZM12.447 11.8369C12.447 11.9909 12.3858 12.1385 12.2769 12.2474C12.1681 12.3563 12.0204 12.4174 11.8665 12.4174H3.73953C3.58558 12.4174 3.43792 12.3563 3.32906 12.2474C3.2202 12.1385 3.15904 11.9909 3.15904 11.8369V7.77346H12.447V11.8369ZM12.447 6.61247H3.15904V4.87098C3.15904 4.71703 3.2202 4.56937 3.32906 4.46051C3.43792 4.35165 3.58558 4.29049 3.73953 4.29049H4.90052V4.87098C4.90052 5.02494 4.96168 5.17259 5.07055 5.28145C5.17941 5.39032 5.32706 5.45148 5.48102 5.45148C5.63498 5.45148 5.78263 5.39032 5.89149 5.28145C6.00035 5.17259 6.06151 5.02494 6.06151 4.87098V4.29049H9.54449V4.87098C9.54449 5.02494 9.60565 5.17259 9.71451 5.28145C9.82337 5.39032 9.97102 5.45148 10.125 5.45148C10.2789 5.45148 10.4266 5.39032 10.5355 5.28145C10.6443 5.17259 10.7055 5.02494 10.7055 4.87098V4.29049H11.8665C12.0204 4.29049 12.1681 4.35165 12.2769 4.46051C12.3858 4.56937 12.447 4.71703 12.447 4.87098V6.61247Z" fill="#191D31" fill-opacity="0.6"/>
</svg>
