<svg width="20" height="20" viewBox="0 0 20 20" fill="none" xmlns="http://www.w3.org/2000/svg">
<path d="M13.334 5.83333C13.334 5.61232 13.4218 5.40036 13.5781 5.24408C13.7343 5.0878 13.9463 5 14.1673 5C14.3883 5 14.6003 5.0878 14.7566 5.24408C14.9129 5.40036 15.0007 5.61232 15.0007 5.83333C15.0007 6.05435 14.9129 6.26631 14.7566 6.42259C14.6003 6.57887 14.3883 6.66667 14.1673 6.66667C13.9463 6.66667 13.7343 6.57887 13.5781 6.42259C13.4218 6.26631 13.334 6.05435 13.334 5.83333Z" fill="#050F24" fill-opacity="0.5"/>
<path fill-rule="evenodd" clip-rule="evenodd" d="M9.99935 6.04297C8.94953 6.04297 7.94272 6.46001 7.20038 7.20234C6.45805 7.94467 6.04102 8.95149 6.04102 10.0013C6.04102 11.0511 6.45805 12.0579 7.20038 12.8003C7.94272 13.5426 8.94953 13.9596 9.99935 13.9596C11.0492 13.9596 12.056 13.5426 12.7983 12.8003C13.5406 12.0579 13.9577 11.0511 13.9577 10.0013C13.9577 8.95149 13.5406 7.94467 12.7983 7.20234C12.056 6.46001 11.0492 6.04297 9.99935 6.04297ZM7.29102 10.0013C7.29102 9.28301 7.57636 8.59413 8.08427 8.08622C8.59218 7.57831 9.28105 7.29297 9.99935 7.29297C10.7176 7.29297 11.4065 7.57831 11.9144 8.08622C12.4223 8.59413 12.7077 9.28301 12.7077 10.0013C12.7077 10.7196 12.4223 11.4085 11.9144 11.9164C11.4065 12.4243 10.7176 12.7096 9.99935 12.7096C9.28105 12.7096 8.59218 12.4243 8.08427 11.9164C7.57636 11.4085 7.29102 10.7196 7.29102 10.0013Z" fill="#050F24" fill-opacity="0.5"/>
<path fill-rule="evenodd" clip-rule="evenodd" d="M14.3823 2.35942C11.4701 2.03644 8.53118 2.03644 5.619 2.35942C3.94233 2.54692 2.58816 3.86776 2.3915 5.55276C2.04658 8.50661 2.04658 11.4906 2.3915 14.4444C2.58816 16.1294 3.9415 17.4503 5.619 17.6378C8.53122 17.9601 11.4701 17.9601 14.3823 17.6378C16.059 17.4503 17.4132 16.1294 17.6098 14.4444C17.9547 11.4906 17.9547 8.50661 17.6098 5.55276C17.4132 3.86776 16.0598 2.54692 14.3823 2.35942ZM5.75733 3.60109C8.57757 3.28835 11.4237 3.28835 14.244 3.60109C15.3523 3.72609 16.2398 4.60026 16.369 5.69859C16.7033 8.55551 16.7033 11.4417 16.369 14.2986C16.3022 14.8361 16.0561 15.3354 15.6705 15.7159C15.285 16.0963 14.7824 16.3357 14.244 16.3953C11.4237 16.708 8.57757 16.708 5.75733 16.3953C5.21895 16.3357 4.71637 16.0963 4.33079 15.7159C3.94521 15.3354 3.69914 14.8361 3.63233 14.2986C3.29804 11.4417 3.29804 8.55551 3.63233 5.69859C3.69914 5.16106 3.94521 4.66174 4.33079 4.2813C4.71637 3.90086 5.21895 3.66068 5.75733 3.60109Z" fill="#050F24" fill-opacity="0.5"/>
</svg>
