<svg width="15" height="15" viewBox="0 0 15 15" fill="none" xmlns="http://www.w3.org/2000/svg">
<path d="M7.60818 1.96851C6.84586 1.96851 6.09101 2.11866 5.38672 2.41038C4.68243 2.70211 4.0425 3.1297 3.50346 3.66874C2.41482 4.75738 1.80323 6.23389 1.80323 7.77346C1.79864 9.11382 2.26271 10.4136 3.11515 11.448L1.95416 12.609C1.87361 12.6906 1.81904 12.7943 1.79735 12.9069C1.77565 13.0195 1.7878 13.136 1.83225 13.2417C1.88047 13.3462 1.95863 13.4339 2.05681 13.4939C2.155 13.5538 2.26879 13.5833 2.38372 13.5784H7.60818C9.14775 13.5784 10.6243 12.9668 11.7129 11.8782C12.8015 10.7895 13.4131 9.31303 13.4131 7.77346C13.4131 6.23389 12.8015 4.75738 11.7129 3.66874C10.6243 2.5801 9.14775 1.96851 7.60818 1.96851ZM7.60818 12.4174H3.78272L4.32258 11.8776C4.43069 11.7688 4.49138 11.6217 4.49138 11.4683C4.49138 11.315 4.43069 11.1678 4.32258 11.0591C3.56247 10.2998 3.08913 9.30047 2.98319 8.23135C2.87726 7.16223 3.1453 6.08945 3.74163 5.19578C4.33797 4.30212 5.22571 3.64286 6.2536 3.33033C7.2815 3.0178 8.38596 3.07133 9.37882 3.48181C10.3717 3.89228 11.1915 4.6343 11.6986 5.58145C12.2057 6.52859 12.3687 7.62227 12.1599 8.67613C11.9511 9.73 11.3833 10.6789 10.5533 11.3611C9.72337 12.0433 8.68254 12.4166 7.60818 12.4174Z" fill="#191D31" fill-opacity="0.6"/>
</svg>
