<svg width="33" height="33" viewBox="0 0 33 33" fill="none" xmlns="http://www.w3.org/2000/svg">
<rect x="0.599121" y="0.453613" width="32" height="32" rx="16" fill="#DBEAFE"/>
<path d="M12.5991 13.7869C12.5991 12.726 13.0205 11.7086 13.7707 10.9584C14.5208 10.2083 15.5383 9.78687 16.5991 9.78687C17.66 9.78687 18.6774 10.2083 19.4275 10.9584C20.1777 11.7086 20.5991 12.726 20.5991 13.7869C20.5991 18.4535 22.5991 19.7869 22.5991 19.7869H10.5991C10.5991 19.7869 12.5991 18.4535 12.5991 13.7869Z" stroke="#2563EB" stroke-width="1.33333" stroke-linecap="round" stroke-linejoin="round"/>
<path d="M15.4658 22.4536C15.5774 22.6566 15.7415 22.8258 15.9408 22.9437C16.1402 23.0616 16.3675 23.1238 16.5992 23.1238C16.8308 23.1238 17.0581 23.0616 17.2575 22.9437C17.4569 22.8258 17.6209 22.6566 17.7325 22.4536" stroke="#2563EB" stroke-width="1.33333" stroke-linecap="round" stroke-linejoin="round"/>
</svg>
