<svg width="25" height="25" viewBox="0 0 25 25" fill="none" xmlns="http://www.w3.org/2000/svg">
<path d="M16.4318 21.2273V16.4623C16.4315 16.2533 16.39 16.0465 16.3098 15.8535C16.2295 15.6606 16.112 15.4854 15.9639 15.3379C15.8159 15.1904 15.6402 15.0735 15.447 14.994C15.2538 14.9145 15.0467 14.8738 14.8378 14.8743H9.52576C9.31679 14.8738 9.10977 14.9145 8.91653 14.994C8.72329 15.0735 8.54763 15.1904 8.39958 15.3379C8.25154 15.4854 8.13402 15.6606 8.05375 15.8535C7.97348 16.0465 7.93202 16.2533 7.93176 16.4623V21.2273M16.4318 3.51231V5.8743C16.4315 6.08328 16.39 6.29014 16.3098 6.48308C16.2295 6.67602 16.112 6.85124 15.9639 6.99873C15.8159 7.14621 15.6402 7.26307 15.447 7.34261C15.2538 7.42216 15.0467 7.46283 14.8378 7.46231H9.52576C9.31679 7.46283 9.10977 7.42216 8.91653 7.34261C8.72329 7.26307 8.54763 7.14621 8.39958 6.99873C8.25154 6.85124 8.13402 6.67602 8.05375 6.48308C7.97348 6.29014 7.93202 6.08328 7.93176 5.8743V3.2273M16.4318 3.51231C16.017 3.32449 15.567 3.22733 15.1118 3.2273H7.93176M16.4318 3.51231C16.7758 3.66831 17.0928 3.88631 17.3658 4.15731L19.7478 6.5323C20.0435 6.82662 20.2783 7.17644 20.4386 7.56169C20.5988 7.94694 20.6815 8.36004 20.6818 8.77731V18.0493C20.6815 18.4673 20.5988 18.8812 20.4385 19.2672C20.2781 19.6533 20.0432 20.0039 19.7472 20.2991C19.4512 20.5943 19.0999 20.8282 18.7134 20.9874C18.3269 21.1467 17.9128 21.2282 17.4948 21.2273H6.86976C6.45174 21.2284 6.03761 21.147 5.65107 20.9878C5.26452 20.8287 4.91315 20.5949 4.61705 20.2998C4.32095 20.0047 4.08594 19.6542 3.92545 19.2682C3.76496 18.8822 3.68216 18.4683 3.68176 18.0503V6.40331C3.68229 5.98536 3.76519 5.57163 3.92574 5.18575C4.08628 4.79987 4.32132 4.44943 4.6174 4.15446C4.91349 3.85949 5.26482 3.62578 5.6513 3.46669C6.03778 3.3076 6.45182 3.22625 6.86976 3.2273H7.93176" stroke="white" stroke-width="1.5" stroke-linecap="round" stroke-linejoin="round"/>
</svg>
