<svg width="20" height="21" viewBox="0 0 20 21" fill="none" xmlns="http://www.w3.org/2000/svg">
<path d="M17.4999 17.9535L13.8808 14.3344M13.8808 14.3344C14.4998 13.7153 14.9909 12.9804 15.3259 12.1715C15.661 11.3626 15.8334 10.4957 15.8334 9.62021C15.8334 8.74471 15.661 7.87778 15.326 7.06892C14.9909 6.26006 14.4998 5.52511 13.8808 4.90604C13.2617 4.28697 12.5267 3.79589 11.7179 3.46085C10.909 3.12581 10.0421 2.95337 9.16659 2.95337C8.29109 2.95337 7.42416 3.12581 6.61531 3.46085C5.80645 3.79589 5.0715 4.28697 4.45243 4.90604C3.20215 6.15632 2.49976 7.85205 2.49976 9.62021C2.49976 11.3884 3.20215 13.0841 4.45243 14.3344C5.7027 15.5846 7.39844 16.287 9.16659 16.287C10.9347 16.287 12.6305 15.5846 13.8808 14.3344Z" stroke="#68CFF7" stroke-width="2.5" stroke-linecap="round" stroke-linejoin="round"/>
</svg>
