<svg width="38" height="39" viewBox="0 0 38 39" fill="none" xmlns="http://www.w3.org/2000/svg">
<path fill-rule="evenodd" clip-rule="evenodd" d="M5.31776 33.015C7.63892 35.333 11.3693 35.333 18.8331 35.333C26.2969 35.333 30.0288 35.333 32.3468 33.0135C34.6664 30.697 34.6664 26.9635 34.6664 19.4997C34.6664 12.0359 34.6664 8.30397 32.3468 5.98438C30.0304 3.66638 26.2969 3.66638 18.8331 3.66638C11.3693 3.66638 7.63734 3.66638 5.31776 5.98438C2.99976 8.30555 2.99976 12.0359 2.99976 19.4997C2.99976 26.9635 2.99976 30.697 5.31776 33.015ZM29.5206 25.833C29.5206 26.148 29.3955 26.45 29.1728 26.6727C28.9501 26.8954 28.648 27.0205 28.3331 27.0205H9.33309C9.01814 27.0205 8.7161 26.8954 8.4934 26.6727C8.2707 26.45 8.14559 26.148 8.14559 25.833C8.14559 25.5181 8.2707 25.2161 8.4934 24.9934C8.7161 24.7707 9.01814 24.6455 9.33309 24.6455H28.3331C28.648 24.6455 28.9501 24.7707 29.1728 24.9934C29.3955 25.2161 29.5206 25.5181 29.5206 25.833ZM28.3331 20.6872C28.648 20.6872 28.9501 20.5621 29.1728 20.3394C29.3955 20.1167 29.5206 19.8147 29.5206 19.4997C29.5206 19.1848 29.3955 18.8827 29.1728 18.66C28.9501 18.4373 28.648 18.3122 28.3331 18.3122H9.33309C9.01814 18.3122 8.7161 18.4373 8.4934 18.66C8.2707 18.8827 8.14559 19.1848 8.14559 19.4997C8.14559 19.8147 8.2707 20.1167 8.4934 20.3394C8.7161 20.5621 9.01814 20.6872 9.33309 20.6872H28.3331ZM29.5206 13.1664C29.5206 13.4813 29.3955 13.7834 29.1728 14.0061C28.9501 14.2288 28.648 14.3539 28.3331 14.3539H9.33309C9.01814 14.3539 8.7161 14.2288 8.4934 14.0061C8.2707 13.7834 8.14559 13.4813 8.14559 13.1664C8.14559 12.8514 8.2707 12.5494 8.4934 12.3267C8.7161 12.104 9.01814 11.9789 9.33309 11.9789H28.3331C28.648 11.9789 28.9501 12.104 29.1728 12.3267C29.3955 12.5494 29.5206 12.8514 29.5206 13.1664Z" fill="#68CFF7"/>
</svg>
